PathFileType	4	(X/Y/Z)	Patient4_TMGait_0pt8_01_left_12.trc.trc
DataRate	CameraRate	NumFrames	NumMarkers	Units	OrigDataRate	OrigDataStartFrame	OrigNumFrames
89.171974522293	89.171974522293	4	33	mm	89.171974522293	71	       141
Frame#	Time	Sacral			L.Shoulder			Chest			R.Shoulder			Neck			R.ASIS			L.ASIS			R.Thigh.Superior			R.Thigh.Lateral			R.Thigh.Inferior			R.Patella			L.Thigh.Superior			L.Thigh.Lateral			L.Thigh.Inferior			L.Patella			L.Shank.Superior			L.Shank.Lateral			L.Shank.Inferior			R.Shank.Superior			R.Shank.Lateral			R.Shank.Inferior			R.Heel			R.Midfoot.Superior			R.Midfoot.Lateral			R.Toe			L.Heel			L.Midfoot.Lateral			L.Midfoot.Superior			L.Toe			L.Elbow			L.Wrist			R.Elbow			R.Wrist			
		X1	Y1	Z1	X2	Y2	Z2	X3	Y3	Z3	X4	Y4	Z4	X5	Y5	Z5	X6	Y6	Z6	X7	Y7	Z7	X8	Y8	Z8	X9	Y9	Z9	X10	Y10	Z10	X11	Y11	Z11	X12	Y12	Z12	X13	Y13	Z13	X14	Y14	Z14	X15	Y15	Z15	X16	Y16	Z16	X17	Y17	Z17	X18	Y18	Z18	X19	Y19	Z19	X20	Y20	Z20	X21	Y21	Z21	X22	Y22	Z22	X23	Y23	Z23	X24	Y24	Z24	X25	Y25	Z25	X26	Y26	Z26	X27	Y27	Z27	X28	Y28	Z28	X29	Y29	Z29	X30	Y30	Z30	X31	Y31	Z31	X32	Y32	Z32	X33	Y33	Z33	

71	13.425000000000	864.327481770152	987.411316992084	444.450759664254	1038.627906850444	1430.586559600886	287.912392616570	1125.312115071054	1360.646835099070	457.532647831551	1018.089508946094	1423.749466619723	622.886157364335	1009.154524568001	1484.648395894080	442.670806133364	1084.299217754924	935.745061826303	579.592960131383	1088.940992146185	956.640816288230	303.614629835630	1166.921397405797	767.017674280786	553.017582666107	1128.966507844291	644.516287695802	631.092512383766	1219.815683148793	610.136376786973	552.593337235172	1257.806242400667	530.796826369986	572.093679628377	1085.488141211725	723.863786145439	329.342249375794	966.323267257692	632.572892020261	262.430328388572	1020.134829198736	536.854310940916	328.967287002136	1002.891886498684	470.900178540635	338.000243214685	968.687964438865	405.446644508741	328.913653157587	865.794706660527	303.707111143156	276.537023451969	897.322813640821	187.105964233454	349.751431981756	1247.343454665002	440.930700121096	583.533409935795	1200.878974877384	325.496105853234	649.326295669561	1274.796931473750	242.546107053294	599.129345536978	1194.190971775069	48.089225152686	574.601774533405	1350.595597136306	135.095200669149	613.777256282214	1278.330147573017	53.595316256767	648.395646836183	1477.235914186634	108.682810724999	641.228517805589	754.404263937122	39.625155270607	391.219091349669	827.077991025874	35.728430826376	309.857676443167	911.363662163589	95.402565489006	336.972982381437	1038.694202153292	42.177985807068	305.310150185200	1173.161269832908	1135.189613065256	126.475109453095	1417.596712775996	1045.342996759587	155.695412264384	895.993899613872	1097.660733611727	725.169080703868	868.907599551481	840.635817449620	748.900944235768	
72	13.436214285714	866.119590779697	984.997740901750	446.792780634358	1038.894355929533	1428.579558425585	290.064858998844	1126.020058445601	1358.868074574055	459.541262134449	1018.708561140929	1421.844757775397	624.907801236721	1009.608425751226	1482.489492684805	444.717604252343	1086.499374971921	933.431712169684	581.643387263457	1090.587791698212	954.708956401745	305.622977710601	1168.171796569306	763.738208896222	555.283590623763	1128.645387610355	640.781709278863	632.128909058686	1219.957792215414	606.956848307467	554.057576407509	1256.606404305612	527.868233209535	572.353739080162	1085.491017845858	721.540833369129	330.745970233725	965.270795994027	631.216530045546	263.866764122946	1018.227166811980	534.901285401116	330.347872445069	1000.379351688328	468.567841843469	339.229422330649	964.956917902799	403.529060479054	330.055647902837	860.388970425518	303.500253887258	277.485395775860	890.033946147010	186.233229596255	350.209597032133	1247.513347988819	437.893065824801	583.544489168407	1201.788020854335	321.478503409051	647.944020218267	1277.301854058301	239.829857334351	597.736044441137	1199.208720503710	45.220776487811	571.511993452416	1354.412271135279	132.916325971634	611.637006546709	1282.796771661744	51.050744337015	645.769672987315	1481.263596476913	107.444792653978	639.826551814982	745.364890488914	39.598998805168	391.164298698510	818.116456568538	35.682387532396	309.906099447204	902.544042633167	95.287695816398	337.091552660768	1029.818226715303	41.859162145849	305.210508985116	1173.631899592891	1134.420969064454	127.145979778758	1421.108774262601	1055.680539708550	158.726025614513	889.730224617660	1099.729221272884	727.737438972238	857.590106446698	843.308546635260	750.344218604821	
73	13.447428571429	867.991406013991	982.520730186767	449.447020217904	1039.078756488769	1426.464602037222	292.337127476748	1126.754885146311	1357.086516314210	461.661090650068	1019.378525027221	1419.935851640420	627.065556671445	1010.061506379173	1480.278041938357	446.893626316156	1088.927537445685	931.056588529609	583.840973740050	1092.284704403186	952.715540270677	307.813171276834	1170.087262550518	760.735341802870	557.528864175260	1128.976858661617	637.142908190583	632.802373123623	1220.861819080385	604.063981600990	555.284630802986	1255.996609473409	524.720542799859	572.257086173376	1085.899033351707	719.198320358266	332.309747139841	964.755544598086	629.665745507619	265.558976516577	1017.105426205883	532.775380260938	331.880052725894	998.732739576568	465.904931191099	340.583836253773	961.871121126850	401.317360468166	331.340400719481	855.411233591280	303.284210476180	278.557411638796	882.932232685942	185.289031799379	350.688431536523	1247.651068212434	434.511030814200	583.234661283614	1201.851363856615	317.578827347545	646.390491161455	1278.075276060784	236.631608907898	596.094870160509	1200.618082501897	43.052029520724	568.491329762447	1355.461190518945	129.772433450562	609.274589442848	1283.716127987168	48.506861631522	643.182511055803	1482.213602112838	103.921849361032	638.174818020053	736.282043603626	39.700734894462	391.043843830375	809.150928005666	35.659421813511	309.912294179606	893.782487067887	95.173486387436	337.168247954494	1020.988457320127	41.532992648432	305.081640000928	1173.601272253101	1133.213671706485	128.060581899647	1423.442677459145	1065.334583008299	161.859873088261	884.115806840515	1101.637637990913	730.334975054173	847.584640901163	845.733106584393	751.691421305057	
74	13.458642857143	869.907757806335	980.026820955588	452.381780159276	1039.196591797969	1424.289000649524	294.729457413916	1127.524395137497	1355.334290849027	463.893679139536	1020.121405304351	1418.053884856362	629.370745442305	1010.532352026017	1478.067925772062	449.212130385327	1091.547476766417	928.687367666326	586.160057694909	1093.992192860337	950.707594171308	310.162422553655	1172.650555011883	758.060382988111	559.682779214822	1129.982383584536	633.738127759044	633.166180482638	1222.478989526865	601.504281366312	556.261511598037	1256.020599959422	521.472789930124	571.843372442183	1086.723464017357	716.881828760768	334.007395324592	964.818526744661	627.920178733047	267.506614598030	1016.883305451137	530.484763250903	333.538183602649	998.090785349103	462.904586783002	342.001821505054	959.520450246489	398.823508891806	332.733978115412	850.930096443514	303.120369293212	279.737017853179	876.071199862377	184.332993991399	351.159370023879	1247.850467335075	430.932985193890	582.669767540424	1201.336267378845	313.903451082705	644.853180555390	1277.407704052337	233.077680909945	594.337841575912	1198.814268255659	41.529116753398	565.785716778765	1354.132867272034	125.835407601870	606.826594630551	1281.552931490124	46.020724569665	640.823783313905	1480.540157233799	98.427707502203	636.298948999686	727.173666740402	40.086968883085	390.843075685923	800.189403220983	35.733896812488	309.864397373604	885.124373095360	95.077001683644	337.177249315793	1012.199937969859	41.195980244310	304.928417323349	1173.045977539501	1131.578541168141	129.228827000499	1424.632992292652	1074.205711039828	165.063580433486	879.317130696145	1103.259138103092	732.901844593586	838.898591176438	847.798319713762	752.999914314762	
